<svg width="96" height="32" viewBox="0 0 96 32" fill="none" xmlns="http://www.w3.org/2000/svg">
<path d="M13.44 6.46808V32H10.6831V7.65957L6.72 3.57447L2.75692 7.65957V28.2553L0 25.1915V6.80851L6.72 0L13.44 6.46808Z" fill="#369681"/>
<path d="M22.4837 16.0539C22.8216 15.5032 23.2596 15.0715 23.7978 14.7586C24.3485 14.4457 24.9743 14.2892 25.6752 14.2892V17.0489H24.9805C24.1545 17.0489 23.5287 17.2429 23.1032 17.6309C22.6902 18.0189 22.4837 18.6947 22.4837 19.6584V24.8398H19.8554V14.4394H22.4837V16.0539ZM38.0524 19.4144C38.0524 19.7898 38.0273 20.1277 37.9773 20.4281H30.3741C30.4366 21.179 30.6995 21.7673 31.1625 22.1928C31.6256 22.6183 32.1951 22.8311 32.8709 22.8311C33.8471 22.8311 34.5417 22.4118 34.9548 21.5733H37.7895C37.4892 22.5745 36.9134 23.4006 36.0624 24.0514C35.2113 24.6897 34.1663 25.0088 32.9272 25.0088C31.926 25.0088 31.0249 24.7898 30.2239 24.3517C29.4354 23.9012 28.8159 23.2691 28.3653 22.4556C27.9273 21.6421 27.7082 20.7035 27.7082 19.6396C27.7082 18.5633 27.9273 17.6184 28.3653 16.8049C28.8034 15.9913 29.4166 15.3656 30.2051 14.9275C30.9936 14.4895 31.901 14.2705 32.9272 14.2705C33.916 14.2705 34.7983 14.4832 35.5743 14.9087C36.3628 15.3343 36.9698 15.9413 37.3953 16.7298C37.8333 17.5057 38.0524 18.4006 38.0524 19.4144ZM35.3302 18.6634C35.3177 17.9876 35.0736 17.4494 34.5981 17.0489C34.1225 16.6359 33.5405 16.4294 32.8521 16.4294C32.2013 16.4294 31.6506 16.6296 31.2001 17.0301C30.762 17.4181 30.493 17.9625 30.3928 18.6634H35.3302ZM43.5377 15.9413C43.8756 15.4657 44.3387 15.0715 44.9269 14.7586C45.5277 14.4332 46.2098 14.2705 46.9732 14.2705C47.8618 14.2705 48.6628 14.4895 49.3762 14.9275C50.1021 15.3656 50.6716 15.9913 51.0846 16.8049C51.5101 17.6059 51.7229 18.5383 51.7229 19.6021C51.7229 20.6659 51.5101 21.6108 51.0846 22.4369C50.6716 23.2504 50.1021 23.8824 49.3762 24.333C48.6628 24.7835 47.8618 25.0088 46.9732 25.0088C46.2098 25.0088 45.5339 24.8524 44.9457 24.5395C44.37 24.2266 43.9006 23.8323 43.5377 23.3568V29.796H40.9094V14.4394H43.5377V15.9413ZM49.0383 19.6021C49.0383 18.9763 48.9069 18.4381 48.644 17.9876C48.3937 17.5245 48.0558 17.1741 47.6303 16.9363C47.2173 16.6985 46.7667 16.5796 46.2786 16.5796C45.803 16.5796 45.3524 16.7047 44.9269 16.955C44.5139 17.1928 44.176 17.5433 43.9132 18.0064C43.6628 18.4694 43.5377 19.0139 43.5377 19.6396C43.5377 20.2654 43.6628 20.8098 43.9132 21.2729C44.176 21.736 44.5139 22.0927 44.9269 22.343C45.3524 22.5808 45.803 22.6997 46.2786 22.6997C46.7667 22.6997 47.2173 22.5745 47.6303 22.3242C48.0558 22.0739 48.3937 21.7172 48.644 21.2541C48.9069 20.7911 49.0383 20.2404 49.0383 19.6021ZM64.2397 19.4144C64.2397 19.7898 64.2147 20.1277 64.1646 20.4281H56.5614C56.624 21.179 56.8868 21.7673 57.3499 22.1928C57.8129 22.6183 58.3824 22.8311 59.0582 22.8311C60.0345 22.8311 60.7291 22.4118 61.1421 21.5733H63.9769C63.6765 22.5745 63.1008 23.4006 62.2497 24.0514C61.3987 24.6897 60.3536 25.0088 59.1146 25.0088C58.1133 25.0088 57.2122 24.7898 56.4112 24.3517C55.6227 23.9012 55.0032 23.2691 54.5526 22.4556C54.1146 21.6421 53.8956 20.7035 53.8956 19.6396C53.8956 18.5633 54.1146 17.6184 54.5526 16.8049C54.9907 15.9913 55.604 15.3656 56.3924 14.9275C57.1809 14.4895 58.0883 14.2705 59.1146 14.2705C60.1033 14.2705 60.9856 14.4832 61.7616 14.9087C62.5501 15.3343 63.1571 15.9413 63.5826 16.7298C64.0207 17.5057 64.2397 18.4006 64.2397 19.4144ZM61.5176 18.6634C61.505 17.9876 61.261 17.4494 60.7854 17.0489C60.3098 16.6359 59.7278 16.4294 59.0395 16.4294C58.3887 16.4294 57.838 16.6296 57.3874 17.0301C56.9494 17.4181 56.6803 17.9625 56.5802 18.6634H61.5176ZM69.725 16.0539C70.0629 15.5032 70.501 15.0715 71.0391 14.7586C71.5898 14.4457 72.2156 14.2892 72.9165 14.2892V17.0489H72.2219C71.3958 17.0489 70.7701 17.2429 70.3445 17.6309C69.9315 18.0189 69.725 18.6947 69.725 19.6584V24.8398H67.0967V14.4394H69.725V16.0539ZM81.7831 24.8398L78.2537 20.4093V24.8398H75.6254V10.9476H78.2537V18.8512L81.7455 14.4394H85.1623L80.5816 19.6584L85.1998 24.8398H81.7831ZM91.5074 25.0088C90.6563 25.0088 89.8929 24.8586 89.217 24.5582C88.5412 24.2454 88.003 23.8261 87.6025 23.3004C87.2145 22.7748 87.0018 22.1928 86.9642 21.5545H89.6113C89.6613 21.955 89.8553 22.2867 90.1932 22.5495C90.5437 22.8123 90.9755 22.9437 91.4886 22.9437C91.9892 22.9437 92.3772 22.8436 92.6525 22.6434C92.9404 22.4431 93.0843 22.1865 93.0843 21.8737C93.0843 21.5357 92.9091 21.2854 92.5587 21.1227C92.2207 20.9475 91.6763 20.7598 90.9254 20.5595C90.1494 20.3718 89.5111 20.1778 89.0105 19.9776C88.5224 19.7773 88.0969 19.4707 87.7339 19.0577C87.3835 18.6446 87.2083 18.0877 87.2083 17.3868C87.2083 16.8111 87.371 16.2855 87.6964 15.8099C88.0343 15.3343 88.5099 14.9588 89.1231 14.6835C89.7489 14.4081 90.4811 14.2705 91.3196 14.2705C92.5587 14.2705 93.5474 14.5833 94.2858 15.2091C95.0242 15.8224 95.431 16.6547 95.5061 17.706H92.9905C92.9529 17.293 92.7777 16.9676 92.4648 16.7298C92.1644 16.4795 91.7577 16.3543 91.2445 16.3543C90.7689 16.3543 90.3997 16.4419 90.1369 16.6171C89.8866 16.7923 89.7614 17.0364 89.7614 17.3493C89.7614 17.6997 89.9367 17.9688 90.2871 18.1565C90.6375 18.3318 91.182 18.5132 91.9204 18.701C92.6713 18.8887 93.2908 19.0827 93.7789 19.2829C94.267 19.4832 94.6863 19.7961 95.0367 20.2216C95.3997 20.6346 95.5874 21.1853 95.5999 21.8737C95.5999 22.4744 95.431 23.0126 95.0931 23.4882C94.7677 23.9638 94.2921 24.3392 93.6663 24.6146C93.053 24.8774 92.3334 25.0088 91.5074 25.0088Z" fill="#369681"/>
</svg>
